name C:\Users\u0150099\Documents\master_thesis\3dpredictsim\Results\debug\Fal_s1_mtj_sc_cspx10_oy_TrackAnkleQSubtQ_MTc2_MTPm_k1_d01_MTJm_nl_MG_exp_v2_table_d01_PF_Natali2010_x2_ls146_FDB_ig21.mot
datacolumns 130
datarows 4
range 1.63529482 1.66800072
endheader
time	pelvis_tilt	pelvis_list	pelvis_rotation	pelvis_tx	pelvis_ty	pelvis_tz	hip_flexion_l	hip_adduction_l	hip_rotation_l	hip_flexion_r	hip_adduction_r	hip_rotation_r	knee_angle_l	knee_angle_r	ankle_angle_l	ankle_angle_r	subtalar_angle_l	subtalar_angle_r	mtj_angle_l	mtj_angle_r	mtp_angle_l	mtp_angle_r	lumbar_extension	lumbar_bending	lumbar_rotation	arm_flex_l	arm_add_l	arm_rot_l	arm_flex_r	arm_add_r	arm_rot_r	elbow_flex_l	elbow_flex_r	pro_sup_l	pro_sup_r	glut_med1_l/activation	glut_med2_l/activation	glut_med3_l/activation	glut_min1_l/activation	glut_min2_l/activation	glut_min3_l/activation	semimem_l/activation	semiten_l/activation	bifemlh_l/activation	bifemsh_l/activation	sar_l/activation	add_long_l/activation	add_brev_l/activation	add_mag1_l/activation	add_mag2_l/activation	add_mag3_l/activation	tfl_l/activation	pect_l/activation	grac_l/activation	glut_max1_l/activation	glut_max2_l/activation	glut_max3_l/activation	iliacus_l/activation	psoas_l/activation	quad_fem_l/activation	gem_l/activation	peri_l/activation	rect_fem_l/activation	vas_med_l/activation	vas_int_l/activation	vas_lat_l/activation	med_gas_l/activation	lat_gas_l/activation	soleus_l/activation	tib_post_l/activation	flex_dig_l/activation	flex_hal_l/activation	tib_ant_l/activation	per_brev_l/activation	per_long_l/activation	per_tert_l/activation	ext_dig_l/activation	ext_hal_l/activation	FDB_l/activation	ercspn_l/activation	intobl_l/activation	extobl_l/activation	glut_med1_r/activation	glut_med2_r/activation	glut_med3_r/activation	glut_min1_r/activation	glut_min2_r/activation	glut_min3_r/activation	semimem_r/activation	semiten_r/activation	bifemlh_r/activation	bifemsh_r/activation	sar_r/activation	add_long_r/activation	add_brev_r/activation	add_mag1_r/activation	add_mag2_r/activation	add_mag3_r/activation	tfl_r/activation	pect_r/activation	grac_r/activation	glut_max1_r/activation	glut_max2_r/activation	glut_max3_r/activation	iliacus_r/activation	psoas_r/activation	quad_fem_r/activation	gem_r/activation	peri_r/activation	rect_fem_r/activation	vas_med_r/activation	vas_int_r/activation	vas_lat_r/activation	med_gas_r/activation	lat_gas_r/activation	soleus_r/activation	tib_post_r/activation	flex_dig_r/activation	flex_hal_r/activation	tib_ant_r/activation	per_brev_r/activation	per_long_r/activation	per_tert_r/activation	ext_dig_r/activation	ext_hal_r/activation	FDB_r/activation	ercspn_r/activation	intobl_r/activation	extobl_r/activation	
          1.63529482	         -2.90547967	          1.64612081	         -5.07440724	          2.17494211	          0.91129653	          0.00460961	         26.95289661	          2.42206599	         -4.00743151	        -14.17715506	          0.61393595	          6.40021821	         -7.89701602	        -17.15972333	          1.70685928	          3.17784488	         -1.20481158	          4.16282754	          2.12015021	         -3.25653080	         -5.82809657	         26.09370635	         -4.20732195	         -0.51612116	          2.08202873	         -6.47268920	        -13.45079031	          5.36937790	          5.69845849	        -14.01343344	         19.36340729	         24.84264918	         40.13886582	         86.51662706	         86.51662706	          0.14993374	          0.05000034	          0.05898370	          0.05000033	          0.05000044	          0.05000107	          0.33659240	          0.06982075	          0.22687424	          0.06982070	          0.05043010	          0.10985055	          0.11217227	          0.09527709	          0.11589593	          0.17482756	          0.05000128	          0.05012261	          0.07073753	          0.05006635	          0.05001483	          0.16161604	          0.05679793	          0.05985807	          0.23076874	          0.05000147	          0.05000046	          0.05000003	          0.05000020	          0.05000019	          0.05000018	          0.09749874	          0.05908469	          0.05051081	          0.13382414	          0.08180826	          0.07575128	          0.26295576	          0.16163218	          0.12379699	          0.25793378	          0.71080235	          0.35258548	          0.37801016	          0.05000009	          0.13249760	          0.13023464	          0.19010960	          0.07278810	          0.05000033	          0.35097920	          0.22260562	          0.10335624	          0.05000269	          0.05000029	          0.05000028	          0.05000031	          0.09755336	          0.05000023	          0.05000039	          0.05000056	          0.05000188	          0.05000149	          0.58447750	          0.05000121	          0.05000057	          0.05000946	          0.05000353	          0.05000176	          0.36716174	          0.71043185	          0.05000022	          0.05000090	          0.05000035	          0.51006787	          0.21673460	          0.22091231	          0.19467254	          0.38569217	          0.58239115	          0.21122169	          0.49979874	          0.41580860	          0.58191598	          0.05000001	          0.09924524	          0.35593635	          0.05000007	          0.05000003	          0.09299276	          0.64279490	          0.05000002	          0.05000024	          0.05000011	
          1.64619679	         -2.91230141	          1.79970181	         -5.39939004	          2.19242220	          0.91021298	          0.00429652	         26.79674338	          2.70009057	         -3.88105275	        -14.85082135	          0.14177426	          6.33089964	         -8.62909514	        -17.42465215	          1.38601326	          1.88340451	         -1.54259929	          4.68239457	          2.25846987	         -4.56256338	         -6.07336242	         29.47946851	         -4.02534768	         -0.76698012	          2.19282835	         -7.35509300	        -13.46404563	          5.16165911	          5.35970120	        -13.95966887	         19.38691196	         24.36628101	         41.52530605	         86.51662706	         86.51662706	          0.12833286	          0.05002053	          0.05000031	          0.05908507	          0.05908484	          0.05000441	          0.28760394	          0.05908507	          0.19198992	          0.05908502	          0.05908695	          0.09749905	          0.09492597	          0.08062775	          0.09807774	          0.21414230	          0.05000076	          0.05334255	          0.05986099	          0.05000068	          0.13268725	          0.24502332	          0.07068521	          0.06673766	          0.28980556	          0.11524747	          0.08218707	          0.06982066	          0.05000019	          0.05000019	          0.05000020	          0.08250734	          0.05000003	          0.05000000	          0.12771062	          0.06982102	          0.06905284	          0.27657868	          0.24314531	          0.13163272	          0.26384426	          0.73252202	          0.30932561	          0.31988752	          0.05000009	          0.11212470	          0.11020963	          0.16087834	          0.06159620	          0.05000010	          0.29701244	          0.18837764	          0.08746415	          0.05000442	          0.05000037	          0.05000029	          0.05000280	          0.08255390	          0.07232722	          0.05000066	          0.05000051	          0.05000138	          0.05000074	          0.53826169	          0.05242137	          0.05000077	          0.05000149	          0.05000085	          0.05000062	          0.31070667	          0.67149495	          0.05000010	          0.05000047	          0.05000127	          0.45768862	          0.22466151	          0.22466312	          0.21457397	          0.32638773	          0.49284212	          0.17874401	          0.46645193	          0.37365798	          0.49244380	          0.05000000	          0.11748546	          0.32878505	          0.05000007	          0.05000002	          0.07869411	          0.54395824	          0.05000001	          0.06586501	          0.05000007	
          1.65709875	         -2.91702129	          1.95285655	         -5.70448454	          2.21019424	          0.90915495	          0.00395642	         26.63585577	          2.96924937	         -3.72201517	        -15.45697710	         -0.32997401	          6.23512062	        -10.05401887	        -17.74844084	          0.83721847	          0.33439130	         -1.96471004	          5.15832949	          2.26157293	         -5.94179207	         -6.27449206	         33.13394487	         -3.83466288	         -1.02253918	          2.29599941	         -8.25243029	        -13.48871135	          5.11642660	          4.94458625	        -13.91357881	         19.38163126	         23.90046239	         42.90910795	         86.51662706	         86.51662706	          0.26119591	          0.05000010	          0.05000053	          0.05000021	          0.05000017	          0.05000021	          0.24338170	          0.05000011	          0.16915550	          0.05000006	          0.05000237	          0.08250819	          0.15683619	          0.14724486	          0.11049933	          0.25433820	          0.05000222	          0.06982721	          0.05065678	          0.05000057	          0.21247178	          0.29947566	          0.06982067	          0.06982056	          0.38755122	          0.09752712	          0.06955050	          0.05908504	          0.05908503	          0.05908502	          0.05908500	          0.06982097	          0.06982082	          0.06982066	          0.14990920	          0.05908541	          0.05908530	          0.37116207	          0.22147157	          0.13983757	          0.55876666	          0.77204980	          0.46367647	          0.35475466	          0.05000001	          0.09488432	          0.09326368	          0.13614165	          0.05212530	          0.05614138	          0.25134359	          0.15941257	          0.07401564	          0.05000094	          0.05000022	          0.05000039	          0.05000007	          0.06986056	          0.15734572	          0.10373405	          0.05908524	          0.05908513	          0.05908524	          0.46612201	          0.06983712	          0.05000337	          0.05015419	          0.05083725	          0.05908419	          0.26293212	          0.65095081	          0.05908494	          0.05908370	          0.05000031	          0.38731396	          0.19011840	          0.19011905	          0.18686399	          0.27620199	          0.41706218	          0.15126013	          0.39472992	          0.31620416	          0.41672533	          0.05000000	          0.12021592	          0.28875208	          0.05000005	          0.05000001	          0.06659403	          0.46031869	          0.05000008	          0.05908496	          0.05908510	
          1.66800072	         -2.92062693	          2.11529831	         -5.98579852	          2.22812507	          0.90815883	          0.00358940	         26.41966152	          3.23473093	         -3.53660458	        -15.93544023	         -0.79813848	          6.12439557	        -11.63345073	        -18.21474522	          0.20580039	         -1.52384779	         -2.36998194	          5.55738438	          2.52598472	         -7.34539464	         -6.17204622	         37.00137595	         -3.64447501	         -1.29173608	          2.38973215	         -9.12780493	        -13.52284498	          5.22581178	          4.47092363	        -13.87309493	         19.35032567	         23.40931041	         44.28227868	         86.51662706	         86.51662706	          0.42069997	          0.32295481	          0.31435376	          0.17708190	          0.25020487	          0.22049962	          0.20595908	          0.17563777	          0.15880753	          0.11883558	          0.05908555	          0.06982170	          0.13272094	          0.12460448	          0.09350913	          0.29969557	          0.05000036	          0.05909095	          0.26560108	          0.26646296	          0.30695527	          0.36449707	          0.05908504	          0.05908499	          0.32796106	          0.08253142	          0.07332395	          0.05000006	          0.05000006	          0.05000005	          0.05000004	          0.05908522	          0.05908509	          0.05908496	          0.16002964	          0.05000038	          0.05000029	          0.39326492	          0.18741793	          0.11833608	          0.62366798	          0.86799252	          0.68941148	          0.30020722	          0.07400602	          0.08604543	          0.07892336	          0.11520897	          0.05000006	          0.05000002	          0.21269728	          0.13490124	          0.06263499	          0.05005451	          0.05000073	          0.05000023	          0.05908596	          0.05911926	          0.23786046	          0.08778391	          0.05000039	          0.05000079	          0.05000073	          0.51672167	          0.05909938	          0.05000059	          0.05000063	          0.05000034	          0.05000026	          0.22250350	          0.74644240	          0.05000003	          0.05000013	          0.05000009	          0.32776017	          0.16088562	          0.16088617	          0.15813161	          0.23373287	          0.35293425	          0.12800221	          0.33403585	          0.26758432	          0.35264928	          0.05000013	          0.10173152	          0.24435332	          0.05000011	          0.05000005	          0.05635448	          0.38953962	          0.08145879	          0.05000000	          0.05000014	
